<svg xmlns="http://www.w3.org/2000/svg" viewBox="0 0 480 640" width="480" height="640" fill="none">
  <defs>
    <linearGradient id="tbody" x1="0" y1="0" x2="480" y2="640" gradientUnits="userSpaceOnUse">
      <stop offset="0" stop-color="#232326"/>
      <stop offset="1" stop-color="#0a0a0b"/>
    </linearGradient>
  </defs>
  <!-- Cuerpo con bisel delgado (pantalla transparente) -->
  <path fill-rule="evenodd" clip-rule="evenodd"
    d="M34 4H446A30 30 0 0 1 476 34V606A30 30 0 0 1 446 636H34A30 30 0 0 1 4 606V34A30 30 0 0 1 34 4ZM34 18H446A16 16 0 0 0 462 34V606A16 16 0 0 0 446 622H34A16 16 0 0 0 18 606V34A16 16 0 0 0 34 18Z"
    fill="url(#tbody)"/>
  <!-- Cámara frontal -->
  <circle cx="240" cy="11" r="3" fill="#3a3a3d"/>
  <!-- Botón lateral -->
  <rect x="476" y="96" width="4" height="60" rx="2" fill="#141416"/>
</svg>
